<?xml version="1.0" encoding="UTF-8"?> <svg xmlns="http://www.w3.org/2000/svg" id="Layer_2" data-name="Layer 2" viewBox="0 0 107.74 107.74"><defs><style> .cls-1 { fill: #95aa1a; } .cls-1, .cls-2, .cls-3, .cls-4, .cls-5 { stroke-width: 0px; } .cls-2 { fill: #d6ff41; } .cls-3 { fill: #e2e2e2; } .cls-4 { fill: #fff; } .cls-5 { fill: #19212d; } </style></defs><g id="Layer_1-2" data-name="Layer 1"><g><rect class="cls-5" width="107.74" height="107.74" rx="31.21" ry="31.21"></rect><g><polygon class="cls-4" points="8.67 18.04 37.39 18.04 66.44 47.08 37.73 47.09 8.67 18.04"></polygon><polygon class="cls-2" points="37.92 47.03 67 17.96 95.72 17.95 66.64 47.03 37.92 47.03"></polygon><polygon class="cls-4" points="66.59 60.71 37.52 89.78 8.8 89.79 37.87 60.71 66.59 60.71"></polygon><polygon class="cls-2" points="99.07 57.07 70.02 86.11 63.55 86.11 52.43 74.99 66.75 60.68 70.37 57.07 99.07 57.07"></polygon><polygon class="cls-3" points="38.08 60.66 52.33 74.94 49.52 77.72 38.08 60.66"></polygon><polygon class="cls-1" points="66.78 60.65 81.16 75.04 83.96 72.2 66.78 60.65"></polygon><polygon class="cls-3" points="37.93 47.07 52.17 32.79 49.37 30.01 37.93 47.07"></polygon><polygon class="cls-2" points="95.85 89.7 67.13 89.7 63.51 86.09 38.08 60.66 66.79 60.66 81.11 74.97 95.85 89.7"></polygon></g></g></g></svg> 